<?xml version="1.0" encoding="utf-8" ?>
<svg baseProfile="tiny" height="246" shape-rendering="crispEdges" version="1.2" width="239" xmlns="http://www.w3.org/2000/svg" xmlns:ev="http://www.w3.org/2001/xml-events" xmlns:xlink="http://www.w3.org/1999/xlink"><defs /><g><path d="M 41.84490127563476,67.53100318908692 L 41.1966251373291,68.32112121582031 L 40.55931510925293,69.11975555419922 L 39.93312702178955,69.92685546874999 L 39.318220329284664,70.74238471984863 L 38.71475811004638,71.56628532409668 L 38.122903442382814,72.39852828979492 L 37.54281578063965,73.23905563354492 L 36.974658203124996,74.08782386779785 L 36.418586540222165,74.94478950500488 L 35.87477111816406,75.80991630554199 L 35.34336414337158,76.68314628601074 L 34.82453231811523,77.5644432067871 L 34.31843147277832,78.45376358032226 L 33.82523193359375,79.35104942321777 L 33.34508590698242,80.2562717437744 L 32.87816009521484,81.16937255859375 L 32.42461032867432,82.09032287597655 L 31.984605121612546,83.01905746459961 L 31.55830030441284,83.95554733276367 L 31.19698038101196,84.78215866088867 L 30.846501541137695,85.61735877990722 L 30.50689640045166,86.46085052490234 L 30.178197574615478,87.31236572265625 L 29.86043767929077,88.17161445617675 L 29.55364751815796,89.03830680847167 L 29.25785789489746,89.91216735839843 L 28.9731050491333,90.79291343688965 L 28.699416160583496,91.68026237487793 L 28.436827468872067,92.5739242553711 L 28.18536796569824,93.47361640930175 L 27.945070266723633,94.37906341552734 L 27.71596698760986,95.28996810913085 L 27.498090744018555,96.20606231689453 L 27.291474151611325,97.12705612182617 L 27.0961462020874,98.05265960693359 L 26.9121413230896,98.98259735107422 L 26.73949213027954,99.91658668518066 L 26.578229427337646,100.85433769226074 L 26.428384017944335,101.79556770324706 L 26.28999214172363,102.74000129699706 L 26.163080978393552,103.68734855651854 L 26.04768495559692,104.63732681274413 L 25.943834877014158,105.58964614868164 L 25.851565170288083,106.54403839111328 L 25.77090663909912,107.50020637512206 L 25.701891899108887,108.45787467956542 L 25.6445499420166,109.41675338745117 L 25.59891700744629,110.37656707763671 L 25.565022087097166,111.33702583312987 L 25.54289960861206,112.29784698486327 L 25.532580375671387,113.25875511169433 L 25.534097003936765,114.21945304870604 L 25.54747848510742,115.17966537475586 L 25.572762870788573,116.13910217285155 L 25.60997552871704,117.09749526977538 L 25.659154510498045,118.05454750061034 L 25.720326995849607,119.00997619628906 L 25.79352922439575,119.96349868774413 L 25.87878837585449,120.914839553833 L 25.976142501831053,121.86370887756347 L 26.085618782043454,122.80981674194335 L 26.20724983215332,123.75288772583008 L 26.341070079803465,124.69265365600586 L 26.487110328674316,125.6287956237793 L 26.645403194427487,126.56105270385741 L 26.815979480743408,127.48914947509765 L 26.99887180328369,128.41278152465821 L 27.194110965728758,129.3316734313965 L 27.401731395721434,130.24554977416992 L 27.621763896942138,131.15410614013672 L 27.85424108505249,132.0570960998535 L 28.09919557571411,132.9542007446289 L 28.356656360626218,133.84514465332032 L 28.62665967941284,134.72965240478516 L 28.909234523773193,135.60743408203123 L 29.204413509368894,136.47821426391602 L 29.51222925186157,137.34170303344726 L 29.83271436691284,138.1976249694824 L 30.165899658203124,139.0456901550293 L 30.51181774139404,139.8856086730957 L 30.870499420166013,140.71710510253905 L 31.31339111328125,141.7008804321289 L 31.769859981536865,142.67568283081053 L 32.23974657058716,143.64146881103514 L 32.72289505004883,144.5981658935547 L 33.21914234161377,145.5457160949707 L 33.72833805084228,146.48407592773438 L 34.250315475463864,147.41315841674805 L 34.784922409057614,148.3329345703125 L 35.33199577331543,149.24331741333006 L 35.8913833618164,150.14426345825194 L 36.462918472290035,151.03571472167968 L 37.046448898315425,151.91759872436523 Z" fill="none" stroke="black" stroke-width="2" /><path d="M 169.67499999999998,66.125 L 169.10796585083008,65.2971420288086 L 168.53416213989257,64.47415466308593 L 167.95337142944337,63.656494522094725 L 167.36534729003907,62.844618225097655 L 166.76988677978514,62.03896789550781 L 166.1667579650879,61.24000015258789 L 165.55572891235352,60.448171615600586 L 164.93658218383788,59.66392803192139 L 164.30907135009764,58.887722396850585 L 163.67299346923826,58.12001132965088 L 163.0281021118164,57.36124057769775 L 162.3741798400879,56.6118667602539 L 161.71100921630858,55.87233924865723 L 161.03834381103516,55.143111038208005 L 160.35598068237303,54.42463150024414 L 159.6636734008789,53.717357254028315 L 158.9612045288086,53.02173767089843 L 158.24834213256835,52.338225746154784 L 157.52485427856445,51.66727085113525 L 156.79053802490233,51.009329605102536 L 156.04514694213867,50.36485137939453 L 155.2884635925293,49.73428554534912 L 154.52024154663084,49.118088722229004 L 153.74029235839842,48.516706657409664 L 152.94835510253907,47.93059959411621 L 152.26507873535155,47.4429048538208 L 151.5754096984863,46.96553840637207 L 150.87946395874022,46.498467636108394 L 150.17734298706054,46.041667175292964 L 149.46914825439453,45.59510803222656 L 148.75498123168944,45.15876121520996 L 148.0349578857422,44.73260135650634 L 147.3091796875,44.316599464416505 L 146.57773361206054,43.91072654724121 L 145.84075012207032,43.51495361328125 L 145.09831619262695,43.1292516708374 L 144.35053329467772,42.75359897613525 L 143.59751739501954,42.38795928955078 L 142.8393699645996,42.03231086730957 L 142.07617797851563,41.68662109375 L 141.30807189941405,41.35086097717285 L 140.53515319824217,41.02500877380371 L 139.75750885009765,40.709028244018555 L 138.97525482177733,40.402897644042966 L 138.1884925842285,40.106587982177736 L 137.39732360839844,39.82007026672363 L 136.60186386108398,39.54331188201904 L 135.8022003173828,39.27629108428955 L 134.9984489440918,39.018978881835935 L 134.1907112121582,38.77134265899658 L 133.3791030883789,38.53335704803467 L 132.56369705200194,38.304996681213375 L 131.74463806152343,38.086228942871095 L 130.9219985961914,37.877028465270996 L 130.09589462280272,37.67736625671387 L 129.26642761230468,37.487213325500484 L 128.4336990356445,37.306540679931636 L 127.59783935546875,37.135322952270506 L 126.75890655517577,36.97353115081787 L 125.91704559326172,36.82113628387451 L 125.07234344482421,36.67811298370361 L 124.22491607666015,36.54442863464355 L 123.37484321594238,36.42005786895752 L 122.52225532531737,36.30497169494629 L 121.6672393798828,36.199141120910646 L 120.80990409851074,36.10254077911377 L 119.95035820007324,36.01514167785644 L 119.08870315551758,35.93691120147705 L 118.22504768371581,35.86782760620117 L 117.35948600769042,35.80786190032959 L 116.49213409423828,35.756981468200685 L 115.62308616638182,35.71516094207764 L 114.75245819091796,35.682371330261226 L 113.88033714294433,35.658587265014646 L 113.00684623718261,35.64377975463867 L 112.13207244873047,35.63791618347168 L 111.25613174438476,35.640971183776855 L 110.37912559509277,35.652919387817384 L 109.50116271972655,35.67373180389404 L 108.6223373413086,35.703375816345215 L 107.74275817871093,35.74182605743408 L 106.86253395080566,35.78905715942383 L 105.98176612854003,35.84503650665283 L 105.10055618286133,35.90973873138427 L 104.2190055847168,35.98313484191895 L 103.33723030090331,36.065195846557614 L 102.45532455444335,36.15589637756347 L 101.57340431213379,36.255203819274904 L 100.69155654907226,36.36309280395508 L 99.80989723205566,36.47953796386719 L 98.92852783203125,36.604506683349605 L 98.04754981994628,36.737973594665526 L 97.16707916259764,36.87990608215332 L 96.28720283508301,37.03028240203857 L 95.40803680419921,37.189069938659664 L 94.52968254089355,37.35623970031738 L 93.65224876403808,37.5317699432373 L 92.77582969665526,37.71562442779541 L 91.90053405761718,37.90778141021728 L 91.02647056579589,38.10820827484131 L 90.15374069213867,38.31687965393066 L 89.28244590759277,38.53376655578613 L 88.41269493103027,38.758843612670894 L 87.54458923339844,38.99207820892334 L 86.67823028564453,39.23344135284424 L 85.81373405456543,39.482907676696776 L 84.9511947631836,39.74045181274414 L 84.09071388244628,40.00604114532471 L 83.23240013122559,40.27965030670166 L 82.37636222839355,40.561246681213376 L 81.52270164489745,40.85080852508545 L 80.67151985168456,41.148303222656246 L 79.82292556762695,41.453705406188966 L 78.97701301574706,41.76698246002197 L 78.13389816284179,42.08811264038086 L 77.29368247985839,42.4170597076416 L 76.45646743774414,42.753805541992186 L 75.62236175537109,43.098313903808595 L 74.79145965576171,43.450559425354 L 73.96387710571288,43.8105131149292 L 73.13971557617187,44.17814960479736 L 72.31907653808594,44.553436279296875 L 71.50206146240234,44.93635139465332 L 70.68877906799317,45.32685871124267 L 69.87933807373047,45.72493648529053 L 69.07383270263672,46.13055572509766 L 68.27237892150879,46.543687438964845 L 67.47507095336914,46.964299011230466 L 66.68201751708985,47.392368698120116 L 65.89332008361816,47.82786750793457 L 65.10908737182618,48.270762825012206 L 64.32941360473632,48.72102928161621 L 63.55442199707031,49.17864151000976 L 62.78419952392578,49.64356689453125 L 62.0188549041748,50.11578006744384 L 61.25849685668945,50.59525203704834 L 60.50322685241699,51.081953811645505 L 59.75314998626709,51.575860023498535 L 59.00836772918701,52.0769380569458 L 58.268988800048824,52.585166168212886 L 57.5351110458374,53.10050811767578 L 56.8068468093872,53.622942161560054 L 56.084297561645506,54.1524356842041 L 55.367561149597165,54.68896694183349 L 54.65675354003906,55.23249969482421 L 53.95196895599365,55.78301219940185 L 53.253316116333,56.34047183990478 L 52.560900115966795,56.90485324859619 L 51.87482242584228,57.47612743377685 L 51.195188140869135,58.05426902770996 L 50.52210235595703,58.639245414733885 L 49.85567016601562,59.231027603149414 L 49.19599666595459,59.829593849182125 L 48.543179702758785,60.43491153717041 L 47.897331619262694,61.04695167541504 L 47.25855388641357,61.6656888961792 L 46.62694797515869,62.29109420776367 L 46.00262260437012,62.92314224243164 L 45.38567924499512,63.56179313659668 L 44.77622299194336,64.20703239440917 L 44.17435894012451,64.85883102416992 L 43.58018856048584,65.51715278625488 L 42.99382057189941,66.18197593688964 L 42.4153564453125,66.85326423645019 L 41.84490127563476,67.53100318908692 Z" fill="none" stroke="black" stroke-width="2" /><path d="M 37.046448898315425,151.91759872436523 L 37.50971813201904,152.59855575561522 L 37.98012294769287,153.27364196777344 L 38.45760173797607,153.9428283691406 L 38.9420783996582,154.60608596801757 L 39.43347682952881,155.26340026855468 L 39.93172817230224,155.91471328735352 L 40.43675994873047,156.56002502441405 L 40.94849967956543,157.1993064880371 L 41.46687488555908,157.83252868652343 L 41.99180946350098,158.45964813232422 L 42.52323818206787,159.08065032958984 L 43.06108493804931,159.69550628662108 L 43.60527362823486,160.30417251586914 L 44.155739021301265,160.906649017334 L 44.71240501403808,161.5029067993164 L 45.27519912719726,162.09288787841797 L 45.84404888153076,162.67659225463868 L 46.418885421752925,163.25399093627928 L 46.99962902069092,163.825040435791 L 47.58621444702148,164.38971176147462 L 48.178565597534174,164.94800491333007 L 48.77660999298095,165.49986190795897 L 49.38027877807617,166.0452682495117 L 49.98949584960937,166.58420944213867 L 50.604192352294916,167.1166275024414 L 51.22429218292236,167.64252243041992 L 51.84972286224365,168.16185073852537 L 52.48041553497314,168.6745979309082 L 53.116294097900386,169.18072052001952 L 53.75728969573974,169.68018951416016 L 54.403329849243164,170.17300491333006 L 55.054338455200195,170.65910873413085 L 55.71024303436279,171.13848648071288 L 56.370978355407715,171.61110916137696 L 57.03646469116211,172.07696228027342 L 57.706633186340326,172.5359878540039 L 58.381407737731934,172.98818588256836 L 59.06072311401367,173.43351287841796 L 59.744499588012694,173.87195434570313 L 60.432668304443354,174.303466796875 L 61.125156784057616,174.72803573608397 L 61.82188892364502,175.14563217163087 L 62.522799491882324,175.55621261596679 L 63.22780876159668,175.95977706909179 L 63.936851501464844,176.35626754760742 L 64.64985160827636,176.74568405151368 L 65.36673660278319,177.12798309326172 L 66.08743400573731,177.50313568115234 L 66.81187133789062,177.87112731933593 L 67.53997611999512,178.23191452026367 L 68.27167587280273,178.58548278808593 L 69.00689811706543,178.93180313110352 L 69.74557037353516,179.27083206176758 L 70.48762741088866,179.60256958007812 L 71.23298225402831,179.9269577026367 L 71.98157691955566,180.24398193359374 L 72.73333168029785,180.5536277770996 L 73.48817405700683,180.85585174560546 L 74.24603157043457,181.1506248474121 L 75.00683898925782,181.43793258666992 L 75.77051658630371,181.71773147583008 L 76.53699188232422,181.99000701904296 L 77.30619239807129,182.25473022460938 L 78.07805290222167,182.51187210083006 L 78.85248641967773,182.76138916015626 L 79.62944221496582,183.00328140258787 L 80.40882606506348,183.23750534057618 L 81.19057998657226,183.46403198242186 L 81.97462425231933,183.68283233642578 L 82.76089363098144,183.89389190673828 L 83.54930114746094,184.09716720581054 L 84.33979606628418,184.29264373779296 L 85.13228416442871,184.48029251098632 L 85.9267147064209,184.6600700378418 L 86.72299346923828,184.83197631835935 L 87.52106246948242,184.9959533691406 L 88.32084922790527,185.15198669433593 L 89.12227401733398,185.3000617980957 L 89.92526435852051,185.44013519287108 L 90.7297550201416,185.5721778869629 L 91.53567352294921,185.69617538452147 L 92.3429401397705,185.81208419799805 L 93.15148963928222,185.91988983154295 L 93.96124229431152,186.01956329345703 L 94.77213287353516,186.111075592041 L 95.58408164978027,186.1943832397461 L 96.39702339172362,186.26948623657225 L 97.21088562011718,186.3363265991211 L 98.02558860778808,186.39490432739257 L 98.84106712341308,186.4451904296875 L 99.65724868774413,186.48712692260742 L 100.47405357360839,186.52071380615234 L 101.29141654968261,186.54592208862303 L 102.10926513671875,186.5627227783203 L 102.92752685546874,186.5710723876953 L 103.74612197875976,186.57095642089843 L 104.56498527526855,186.56234588623045 L 105.38404426574706,186.54522628784179 L 106.20322647094726,186.51953964233397 L 107.02245216369629,186.48528594970702 L 107.8416633605957,186.4424217224121 L 108.66077308654785,186.3909324645996 L 109.47971611022949,186.33077468872068 L 110.29841995239258,186.26191940307615 L 111.11680488586425,186.184366607666 L 111.93481292724609,186.0980583190918 L 112.75236434936522,186.00299453735352 L 113.56937942504882,185.89911727905272 L 114.38580017089843,185.78642654418945 L 115.2015396118164,185.66486434936522 L 116.01653976440429,185.53443069458007 L 116.83071365356444,185.39509658813475 L 117.64399604797363,185.24681854248047 L 118.4563217163086,185.08956756591795 L 119.26760368347168,184.92332916259764 L 120.07778396606444,184.7480743408203 L 120.88677558898925,184.56377410888672 L 121.69452056884765,184.37039947509766 L 122.5009391784668,184.1679214477539 L 123.30595893859862,183.95631103515623 L 124.1095001220703,183.73555374145508 L 124.9115119934082,183.50560607910157 L 125.71190032958984,183.26643905639648 L 126.51060714721679,183.01803817749024 L 127.3075454711914,182.76035995483397 L 128.10265731811523,182.4933898925781 L 128.89587020874023,182.21709899902342 L 129.68709716796874,181.9314582824707 L 130.47628021240234,181.6364387512207 L 131.26333236694336,181.3320114135742 L 132.04819564819334,181.01816177368164 L 132.8307975769043,180.69483184814453 L 133.6110511779785,180.36202163696288 L 134.38889846801757,180.0197021484375 L 135.16426696777344,179.66782989501954 L 135.93706970214842,179.30639038085937 L 136.70724868774414,178.93535461425782 L 137.4747314453125,178.554679107666 L 138.23943099975585,178.16434936523436 L 139.00128936767578,177.76435089111328 L 139.7602340698242,177.3546401977539 L 140.5161926269531,176.93518829345703 L 141.26907806396483,176.50596618652344 L 142.01883239746093,176.06695938110352 L 142.76538314819337,175.61812438964844 L 143.50864334106444,175.1594467163086 L 144.2485694885254,174.69089736938477 L 144.9850601196289,174.21243286132812 L 145.71805725097656,173.72405319213865 L 146.4474739074707,173.22570037841797 L 147.1732666015625,172.717374420166 L 147.89533386230468,172.19903182983398 L 148.6136177062988,171.67064361572264 L 149.32803115844726,171.1321807861328 L 150.03853073120118,170.58362884521483 L 150.74501495361326,170.02495880126952 L 151.44744033813475,169.45612716674805 L 152.14570541381835,168.8771194458008 L 152.83975219726562,168.28790664672852 L 153.5295082092285,167.68845977783204 L 154.21488647460936,167.0787498474121 L 154.89584350585938,166.45874786376953 L 155.57227783203123,165.82842483520508 L 156.24413146972657,165.18776626586913 L 156.91134643554688,164.53672866821287 L 157.5738212585449,163.87529754638672 L 158.23149795532225,163.20342941284179 L 158.88428955078123,162.5211097717285 L 159.53215255737305,161.82830963134765 L 160.17499999999998,161.125 Z" fill="none" stroke="black" stroke-width="2" /><path d="M 42.81580066680908,68.52944831848144 L 43.32054977416992,69.10712242126465 L 43.8366455078125,69.65049934387207 L 44.36363487243652,70.16099243164062 L 44.90108299255371,70.6399932861328 L 45.448547744750975,71.08890075683594 L 46.00558700561523,71.50912094116211 L 46.5717586517334,71.90204544067383 L 47.14661693572998,72.26907310485839 L 47.729726982116695,72.61161003112792 L 48.32064304351806,72.93104782104491 L 48.9189266204834,73.22879257202148 L 49.5241319656372,73.50624313354491 L 50.135816955566405,73.76479110717773 L 50.75354309082031,74.00584259033202 L 51.37686824798584,74.23079643249511 L 52.0053503036499,74.4410514831543 L 52.63854713439941,74.63800659179687 L 53.27601661682129,74.82306060791015 L 53.91731662750244,74.99761238098144 L 54.562005043029785,75.16306076049804 L 55.20964336395264,75.32081184387206 L 55.859785842895505,75.47224998474121 L 56.51199398040771,75.61878852844238 L 57.16582565307617,75.76182632446289 L 57.82083511352539,75.90275497436524 L 58.476587486267086,76.04297332763672 L 59.132633399963375,76.18388748168945 L 59.78853797912598,76.32689628601074 L 60.44385547637939,76.47339134216308 L 61.09814376831054,76.6247787475586 L 61.750960731506346,76.78245735168457 L 62.40187149047851,76.94782600402831 L 63.050423049926756,77.12227630615234 L 63.696184158325195,77.30722160339356 L 64.33871269226074,77.50405349731444 L 64.9775520324707,77.71417083740234 L 65.6122817993164,77.93897247314453 L 66.24244537353515,78.17985725402832 L 66.86760063171387,78.43823127746582 L 67.48731994628906,78.71548614501953 L 68.10114669799805,79.01302795410156 L 68.70864601135254,79.33224830627441 L 69.30937576293945,79.67454605102539 L 69.9028865814209,80.0413272857666 L 70.48875083923339,80.43399085998534 L 71.06651916503905,80.85393562316894 L 71.6357494354248,81.30255317687988 L 72.19599227905273,81.78124961853027 L 72.74682731628418,82.29142379760742 L 73.28779067993163,82.83447456359863 L 73.81845474243164,83.41180801391602 L 74.33837013244629,84.02480850219726 L 74.8470947265625,84.6748821258545 L 75.344193649292,85.36343498229981 L 75.82921752929687,86.0918586730957 L 76.30173149108886,86.86155204772949 L 76.76129341125488,87.67392120361328 L 77.20745391845703,88.53035774230956 L 77.63977813720703,89.43226776123046 L 78.057816696167,90.38104286193847 L 78.46114196777343,91.3780891418457 L 78.84929733276367,92.42479820251465 L 79.10583038330078,93.19803581237792 L 79.33816261291504,94.00133056640624 L 79.54687385559082,94.83295745849608 L 79.7325439453125,95.69119873046874 L 79.89575996398925,96.57432212829589 L 80.03710174560547,97.48061714172363 L 80.1571563720703,98.40835876464843 L 80.25648918151855,99.35582199096679 L 80.33569450378418,100.32128181457519 L 80.39535942077636,101.30302772521972 L 80.43604927062988,102.29932746887206 L 80.4583511352539,103.3084632873535 L 80.46285209655761,104.32871017456054 L 80.45013198852538,105.35835037231445 L 80.42076339721679,106.39566612243652 L 80.37534065246582,107.43891792297363 L 80.31443634033202,108.48640251159668 L 80.2386375427246,109.53639488220215 L 80.14851684570313,110.58716278076172 L 80.04466857910155,111.63698844909668 L 79.92766532897949,112.68416137695311 L 79.79808692932129,113.72694206237793 L 79.65652046203613,114.76361999511718 L 79.5035457611084,115.79247016906737 L 79.33974990844726,116.811767578125 L 79.1656982421875,117.81979446411133 L 78.98198509216309,118.81483306884765 L 78.7891902923584,119.79515113830566 L 78.58789367675782,120.75903091430663 L 78.37868232727051,121.70475463867187 L 78.16212882995605,122.63059730529784 L 77.93881301879883,123.53483390808105 L 77.7093292236328,124.41573944091796 L 77.47424278259277,125.27160339355468 L 77.2341480255127,126.1007080078125 L 76.98962478637695,126.90131378173828 L 76.74125289916992,127.67169570922852 L 76.37830581665038,128.7229637145996 L 76.00257339477538,129.72629394531248 L 75.6143310546875,130.6829765319824 L 75.21383972167969,131.59422912597657 L 74.80136756896972,132.46132736206053 L 74.37716827392578,133.28551788330077 L 73.94151725769042,134.06804733276365 L 73.49467544555664,134.8101623535156 L 73.03691101074219,135.51312408447265 L 72.56847763061523,136.17816467285155 L 72.08965797424317,136.80655975341796 L 71.60070571899413,137.39955596923826 L 71.10188179016113,137.9583999633789 L 70.59346160888671,138.48433837890624 L 70.07570610046386,138.97863235473633 L 69.54887619018554,139.44251403808593 L 69.01324729919433,139.8772590637207 L 68.4690731048584,140.28409957885742 L 67.9166217803955,140.6643112182617 L 67.35615425109863,141.01911163330078 L 66.78794593811035,141.34977645874022 L 66.21225776672362,141.65755233764648 L 65.62935066223145,141.94368591308594 L 65.03949279785155,142.2094383239746 L 64.44294509887695,142.4560417175293 L 63.83997573852539,142.6847717285156 L 63.230852890014646,142.8968605041504 L 62.61583385467529,143.09356918334962 L 61.9951904296875,143.2761444091797 L 61.36918354034424,143.44583282470703 L 60.73807773590087,143.60391006469726 L 60.10214118957519,143.75159378051757 L 59.46163845062256,143.8901596069336 L 58.816830444335935,144.0208396911621 L 58.167985343933104,144.14490966796873 L 57.51536769866943,144.26360168457032 L 56.85924205780029,144.3781623840332 L 56.19986934661865,144.48986740112304 L 55.53752498626709,144.59994888305664 L 54.87246265411377,144.70966796874998 L 54.20495414733887,144.82025680541992 L 53.53526039123535,144.93299102783203 L 52.86364955902099,145.04911727905272 L 52.190382575988764,145.16986770629882 L 51.515731239318846,145.29651794433593 L 50.839952850341795,145.43030014038087 L 50.16331558227539,145.5724899291992 L 49.486083984375,145.7243049621582 L 48.808522605895995,145.88703536987305 L 48.13089962005615,146.06189880371093 L 47.45347595214844,146.2501564025879 L 46.77651615142822,146.45306930541992 L 46.10028839111328,146.67186965942383 L 45.42505722045898,146.90783309936523 L 44.7510835647583,147.16219177246094 L 44.078635597229,147.43620681762695 L 43.40797786712646,147.73113937377929 L 42.73937854766846,148.04820709228514 L 42.07309494018555,148.38870010375976 L 41.40939521789551,148.75385055541992 L 40.74854755401611,149.14490509033203 L 40.090816497802734,149.5631103515625 L 39.436459350585935,150.00974197387694 L 38.7857515335083,150.48604660034178 L 38.13895034790039,150.9932563781738 L 37.04645000000001,151.91760000000002 Z" fill="none" stroke="black" stroke-width="2" /><path d="M 160.17499999999998,161.125 L 160.91372299194336,160.21566085815428 L 161.63892135620117,159.3126708984375 L 162.35063858032225,158.41581268310546 L 163.04893264770507,157.52485427856445 L 163.73387603759764,156.63959274291992 L 164.40551223754883,155.75979614257812 L 165.06389923095702,154.8852470397949 L 165.7091094970703,154.01571350097655 L 166.34117202758787,153.1509780883789 L 166.9601593017578,152.29082336425782 L 167.5661293029785,151.4350173950195 L 168.15912551879882,150.58335723876954 L 168.7392349243164,149.73559646606444 L 169.30647201538085,148.89151763916016 L 169.86093826293944,148.0509178161621 L 170.40264816284179,147.21355056762695 L 170.93168869018555,146.37921295166015 L 171.44810333251954,145.54765853881835 L 171.9519500732422,144.71869888305665 L 172.44330139160155,143.89208755493163 L 172.92218627929688,143.0676071166992 L 173.38867721557617,142.24504013061522 L 173.84283218383788,141.42416915893554 L 174.28469467163086,140.6047477722168 L 174.71435165405273,139.78658752441405 L 175.1318176269531,138.96944198608398 L 175.53717956542968,138.15309371948243 L 175.93049545288085,137.33732528686522 L 176.31180877685546,136.52190475463865 L 176.68117752075196,135.7066291809082 L 177.03865966796874,134.89125213623046 L 177.3843132019043,134.07557067871093 L 177.71819610595702,133.25935287475585 L 178.04036636352538,132.4423812866211 L 178.35088195800782,131.6244384765625 L 178.64978637695313,130.80529251098633 L 178.93715209960936,129.98472595214844 L 179.213037109375,129.1625068664551 L 179.47748489379882,128.33843231201172 L 179.73055343627928,127.51225585937499 L 179.97231521606446,126.68377456665038 L 180.20279922485352,125.85277099609374 L 180.42209243774414,125.01899871826171 L 180.63023834228514,124.18225479125977 L 180.827294921875,123.34230728149413 L 181.0133201599121,122.4989459991455 L 181.1883575439453,121.65193176269531 L 181.35247955322265,120.80105438232421 L 181.50574417114257,119.94609642028809 L 181.6481948852539,119.08681869506836 L 181.77988967895507,118.2230110168457 L 181.90090103149413,117.35444869995116 L 182.01128692626952,116.48091430664061 L 182.11107635498047,115.6021759033203 L 182.200341796875,114.71801605224609 L 182.27915573120117,113.82821731567383 L 182.3475471496582,112.93254776000975 L 182.40558853149415,112.03079719543456 L 182.4533378601074,111.12273368835449 L 182.49085311889647,110.20813255310058 L 182.51817779541014,109.2867835998535 L 182.53538436889647,108.35845489501952 L 182.5425163269043,107.42292900085448 L 182.539631652832,106.47998123168945 L 182.52680282592772,105.52939414978027 L 182.50407333374022,104.570943069458 L 182.47150115966795,103.60440330505371 L 182.4276222229004,102.62496948242188 L 182.3718132019043,101.65203704833984 L 182.3039581298828,100.68535232543945 L 182.22395553588868,99.72467613220215 L 182.131689453125,98.76974754333496 L 182.02702941894532,97.82032012939453 L 181.90985946655272,96.8761547088623 L 181.78009262084962,95.9369903564453 L 181.63759841918946,95.002587890625 L 181.48226089477538,94.0726936340332 L 181.31396408081054,93.14705390930176 L 181.13260650634766,92.22542953491211 L 180.93805770874022,91.3075668334961 L 180.730216217041,90.39321937561034 L 180.50895156860352,89.48214073181153 L 180.27417678833007,88.57406997680664 L 180.0257614135742,87.66877517700195 L 179.76358947753906,86.76598815917968 L 179.48754501342773,85.86547698974609 L 179.19751205444337,84.966987991333 L 178.89338912963868,84.07027473449706 L 178.5750602722168,83.17507629394531 L 178.24240951538084,82.28116073608398 L 177.89532089233398,81.38826713562011 L 177.53366394042968,80.49614906311035 L 177.1573516845703,79.60456008911133 L 176.76625366210936,78.71325378417968 L 176.3602684020996,77.82197647094726 L 175.93926544189452,76.9304817199707 L 175.50314331054688,76.03852310180663 L 175.05178604125976,75.14584693908691 L 174.58507766723633,74.25219955444335 L 174.10288772583007,73.35734901428222 L 173.60512924194336,72.46103439331054 L 173.0916862487793,71.56300926208496 L 172.5624282836914,70.6630199432373 L 172.0172393798828,69.76082725524903 L 171.45601806640624,68.85617752075196 L 170.87864837646484,67.94882431030273 L 170.2850143432617,67.0385139465332 L 169.67499999999998,66.125 Z" fill="none" stroke="black" stroke-width="2" /><path d="M 169.67499999999998,66.125 L 169.08014831542968,66.82819366455078 L 168.4768310546875,67.49287185668945 L 167.8651931762695,68.12013626098633 L 167.2454231262207,68.71108856201171 L 166.6176803588867,69.26683769226074 L 165.98212432861328,69.78847808837891 L 165.3389434814453,70.27711868286133 L 164.6882827758789,70.73386116027832 L 164.03033065795898,71.1598072052002 L 163.36524658203123,71.55606575012207 L 162.6931900024414,71.92373123168944 L 162.01434936523438,72.26391258239745 L 161.32886962890623,72.5777114868164 L 160.63692474365234,72.8662296295166 L 159.93870315551757,73.13057594299316 L 159.23434982299804,73.3718448638916 L 158.52403869628907,73.59114532470703 L 157.80794372558594,73.78958625793457 L 157.08622436523436,73.96825485229492 L 156.3590545654297,74.12826728820801 L 155.62659378051757,74.27071800231933 L 154.88903045654297,74.39672317504882 L 154.14650955200196,74.50736999511719 L 153.39920501708983,74.60376739501953 L 152.64729080200195,74.68702430725098 L 151.89092636108398,74.75824241638183 L 151.13030014038085,74.81851615905761 L 150.36555709838868,74.86896171569823 L 149.59687118530272,74.91067352294921 L 148.82441635131835,74.94475326538085 L 148.04835205078123,74.97230262756348 L 147.26885223388672,74.99443778991699 L 146.48609085083007,75.0122531890869 L 145.70022735595703,75.02684326171875 L 144.91143569946288,75.03933143615723 L 144.11986083984374,75.05080490112304 L 143.32570571899413,75.06236534118652 L 142.52911529541015,75.07512893676757 L 141.7302635192871,75.09019012451172 L 140.9293243408203,75.10865783691406 L 140.12645721435547,75.13162651062011 L 139.32183609008788,75.160205078125 L 138.51562042236327,75.19548797607422 L 137.70799865722657,75.2385986328125 L 136.89910125732422,75.29061698913574 L 136.08913116455076,75.35266647338867 L 135.27824783325195,75.42583427429199 L 134.46661071777342,75.51122932434082 L 133.65439376831054,75.60995330810546 L 132.84177093505858,75.72311515808106 L 132.02890167236328,75.85181655883788 L 131.2159454345703,75.99715194702148 L 130.4030906677246,76.16023025512695 L 129.59048233032226,76.34216041564942 L 128.7783088684082,76.54403686523438 L 127.96672973632812,76.76696853637695 L 127.15591888427734,77.01204986572266 L 126.34603576660156,77.2803970336914 L 125.5372543334961,77.5731044769287 L 124.72973403930663,77.89127388000487 L 123.92364883422852,78.23601417541504 L 123.11917266845703,78.60842704772949 L 122.31646499633788,79.00961418151856 L 121.5156997680664,79.44067726135253 L 120.71703643798827,79.90271797180175 L 119.92064895629882,80.39685249328613 L 119.1174991607666,80.92535667419433 L 118.33425216674804,81.4666244506836 L 117.57087173461913,82.02035140991211 L 116.82733612060547,82.58621864318847 L 116.1035945892334,83.1639289855957 L 115.39962539672851,83.75316352844239 L 114.71539230346679,84.35361785888672 L 114.05085906982421,84.96498031616211 L 113.40598945617675,85.58694648742676 L 112.78075447082519,86.21920471191406 L 112.1751178741455,86.86143608093262 L 111.58904342651367,87.51335067749024 L 111.02250213623046,88.1746223449707 L 110.47545776367187,88.84494667053222 L 109.94788131713867,89.52401924133301 L 109.43972206115723,90.21152114868164 L 108.95096549987792,90.90715522766114 L 108.48156814575195,91.61060256958008 L 108.03149375915527,92.32155876159668 L 107.60071334838867,93.03971214294434 L 107.18919792175292,93.76475105285644 L 106.79689674377441,94.496378326416 L 106.42379531860351,95.23426780700683 L 106.0698429107666,95.97812232971191 L 105.73501777648926,96.72763023376464 L 105.41928367614746,97.48247985839843 L 105.12259712219237,98.24235954284667 L 104.84493637084961,99.00697212219238 L 104.58625793457031,99.77599143981934 L 104.34653282165527,100.54912033081054 L 104.12573204040527,101.3260398864746 L 103.92381210327147,102.10645294189453 L 103.74073677062988,102.8900405883789 L 103.57648429870605,103.67649841308594 L 103.43101844787597,104.46551475524902 L 103.30429573059081,105.25678520202636 L 103.19628715515137,106.04999084472655 L 103.1069564819336,106.8448345184326 L 103.03627471923828,107.64099731445312 L 102.9842056274414,108.43816757202148 L 102.95072021484374,109.2360481262207 L 102.93577499389647,110.03432006835936 L 102.93934097290038,110.83267898559569 L 102.96138191223145,111.63082046508788 L 103.00186882019042,112.42841835021972 L 103.06075820922851,113.22518272399901 L 103.13802833557128,114.02078742980956 L 103.23363571166992,114.81493530273437 L 103.3475513458252,115.60731468200683 L 103.47973899841308,116.39761390686034 L 103.63016242980956,117.18552131652831 L 103.79879264831543,117.97073249816894 L 103.98559341430663,118.75293579101562 L 104.19053573608397,119.53181953430175 L 104.41357612609863,120.30708656311035 L 104.65468559265136,121.07841072082519 L 104.91382789611816,121.84549484252929 L 105.1909740447998,122.60802726745605 L 105.48608055114745,123.36568908691406 L 105.79912567138672,124.11818313598633 L 106.13006591796875,124.86519775390624 L 106.47887229919434,125.60642852783202 L 106.84550857543945,126.34154205322265 L 107.22993850708008,127.07026290893555 L 107.63213310241699,127.79225769042968 L 108.05206336975097,128.5072219848633 L 108.48967857360839,129.21485137939453 L 108.94495697021483,129.91484146118165 L 109.41786231994628,130.6068733215332 L 109.9083656311035,131.2906425476074 L 110.41641616821289,131.9658302307129 L 110.9419994354248,132.63213195800782 L 111.48507194519043,133.28925781249998 L 112.04559745788573,133.93687438964844 L 112.62355422973633,134.5746772766113 L 113.21889152526855,135.20236206054688 L 113.831587600708,135.81960983276366 L 114.46159896850585,136.42613067626954 L 115.10889663696288,137.02160568237304 L 115.77961959838866,137.6057159423828 L 116.4637149810791,138.16489334106444 L 117.16065368652343,138.7001235961914 L 117.86989212036133,139.2123924255371 L 118.59090118408203,139.7027290344238 L 119.32314453125,140.17209014892578 L 120.06607131958008,140.62150497436522 L 120.81916694641113,141.05197372436524 L 121.58188056945801,141.4644676208496 L 122.35367584228516,141.860001373291 L 123.13402366638184,142.23957519531248 L 123.9223876953125,142.60418930053712 L 124.71820983886718,142.95482940673827 L 125.52098999023437,143.29251022338866 L 126.3301628112793,143.61821746826172 L 127.14522094726561,143.93295135498047 L 127.96558456420898,144.23771209716796 L 128.79076080322267,144.53349990844725 L 129.62018432617185,144.8213005065918 L 130.4533332824707,145.1021430969238 L 131.2896713256836,145.37698440551756 L 132.12864761352537,145.6468536376953 L 132.96974029541016,145.91273651123046 L 133.81241302490233,146.17563323974608 L 134.6561149597168,146.43654403686523 L 135.50032424926758,146.69646911621092 L 136.34450454711913,146.95639419555664 L 137.18811950683593,147.217333984375 L 138.0306182861328,147.48027420043945 L 138.87147903442383,147.74621505737304 L 139.71015090942382,148.01615676879882 L 140.54612655639647,148.29109954833984 L 141.37884063720702,148.57204360961913 L 142.2077568054199,148.85998916625977 L 143.0323532104492,149.15592193603516 L 143.85209350585936,149.46084213256836 L 144.66644134521485,149.77576446533203 L 145.47484588623047,150.1016746520996 L 146.27678527832032,150.43955841064454 L 147.07170867919922,150.79044494628906 L 147.85909423828124,151.15530548095703 L 148.63840560913084,151.5351547241211 L 149.4090919494629,151.93097839355468 L 150.1706314086914,152.34377670288086 L 150.92248764038087,152.77456436157226 L 151.6641098022461,153.22431259155272 L 152.39497604370118,153.69403610229492 L 153.11453552246093,154.18473510742186 L 153.82226638793944,154.69740982055663 L 154.51763229370115,155.23304595947266 L 155.20008239746093,155.79264373779296 L 155.8690948486328,156.37721786499023 L 156.52411880493165,156.98773956298828 L 157.16463241577148,157.62522354125977 L 157.79009933471679,158.29067001342773 L 158.39996871948242,158.98507919311524 L 158.99371871948242,159.7094367980957 L 159.57079849243163,160.4647430419922 L 160.17499999999998,161.12594999999996 Z" fill="none" stroke="black" stroke-width="2" /><path d="M 14.582749891281127,218.36725463867185 L 14.505732536315918,217.41595001220702 L 14.428834772109985,216.4645584106445 L 14.352059316635131,215.51309432983396 L 14.275406169891356,214.56154327392576 L 14.198878049850464,213.60991973876952 L 14.122476768493652,212.65822372436523 L 14.046203231811523,211.7064552307129 L 13.970060157775878,210.75459976196288 L 13.894047546386718,209.80267181396482 L 13.818169021606444,208.85067138671874 L 13.742425489425658,207.8985984802246 L 13.66681876182556,206.94645309448242 L 13.591349744796752,205.99422073364258 L 13.516021156311034,205.04193038940429 L 13.440833902359008,204.08956756591795 L 13.365789794921875,203.1371322631836 L 13.290891551971436,202.18460998535156 L 13.21613917350769,201.2320442199707 L 13.141536283493041,200.27939147949218 L 13.06708288192749,199.3266662597656 L 12.992780780792236,198.3738830566406 L 12.918632698059081,197.42102737426757 L 12.844639539718628,196.46811370849608 L 12.770803117752076,195.51512756347654 L 12.697125244140624,194.56206893920898 L 12.623607730865478,193.60895233154295 L 12.550251483917236,192.6557632446289 L 12.4770592212677,191.7025161743164 L 12.40403275489807,190.74921112060545 L 12.33117208480835,189.79583358764648 L 12.258480834960936,188.84239807128904 L 12.185959911346435,187.8889045715332 L 12.113610219955444,186.9353385925293 L 12.041434478759765,185.98171463012693 L 11.9694344997406,185.02803268432615 L 11.897611188888549,184.07429275512695 L 11.825966358184814,183.1204948425293 L 11.754502725601196,182.1666389465332 L 11.683220291137696,181.21272506713868 L 11.612121772766113,180.2587532043457 L 11.541208982467651,179.3047233581543 L 11.47048282623291,178.35063552856445 L 11.39994602203369,177.39650421142576 L 11.329599475860595,176.44230041503906 L 11.259444999694823,175.4880531311035 L 11.189484405517577,174.53376235961915 L 11.119719505310059,173.57939910888672 L 11.050151205062866,172.62499237060547 L 10.980782222747802,171.67052764892577 L 10.911613464355469,170.71601943969725 L 10.842647647857666,169.7614532470703 L 10.773885679244994,168.8068435668945 L 10.705328464508057,167.85219039916993 L 10.636979627609252,166.89747924804686 L 10.568839168548584,165.942724609375 L 10.500909805297852,164.98791198730467 L 10.433192443847656,164.03305587768554 L 10.365688896179199,163.07815628051756 L 10.298400974273681,162.1232131958008 L 10.231331396102904,161.16822662353516 L 10.16448016166687,160.2131965637207 L 10.097849988937378,159.25810852050782 L 10.031441783905029,158.3029914855957 L 9.965258264541625,157.34783096313475 L 9.899300336837769,156.3926124572754 L 9.833569812774659,155.4373649597168 L 9.768068504333495,154.48207397460936 L 9.702798223495483,153.52673950195313 L 9.63776078224182,152.57137603759764 L 9.57295663356781,151.61595458984374 L 9.508388948440551,150.66051864624023 L 9.444059085845947,149.70502471923828 L 9.379968404769897,148.7495018005371 L 9.316118264198302,147.7939353942871 L 9.252510929107665,146.83833999633788 L 9.189148211479186,145.88270111083983 L 9.126031470298766,144.92703323364256 L 9.063162064552307,143.97132186889647 L 9.000542259216308,143.01558151245118 L 8.938173413276672,142.05981216430663 L 8.876057338714599,141.1040138244629 L 8.814195847511291,140.1481719970703 L 8.752590298652649,139.19230117797852 L 8.691242957115172,138.23640136718748 L 8.630154728889465,137.28047256469725 L 8.569327425956725,136.32451477050782 L 8.508763313293457,135.36852798461913 L 8.448463749885558,134.41249771118163 L 8.388430094718933,133.45645294189453 L 8.32866461277008,132.5003791809082 L 8.269168210029601,131.54427642822264 L 8.209943604469299,130.5881591796875 L 8.150991702079772,129.6319984436035 L 8.092314314842223,128.67582321166992 L 8.033913254737854,127.7196189880371 L 7.975790333747863,126.76338577270508 L 7.917947363853454,125.80713806152343 L 7.860385251045226,124.85086135864258 L 7.803106260299682,123.8945701599121 L 7.746112203598022,122.93824996948241 L 7.689404439926148,121.98191528320312 L 7.632984781265258,121.0255516052246 L 7.576854586601257,120.06917343139648 L 7.5210161209106445,119.11277351379394 L 7.4654707431793215,118.15635910034179 L 7.410220265388489,117.19992294311523 L 7.355266046524048,116.24347229003905 L 7.3006103515625,115.28699989318847 L 7.246254086494446,114.33051300048828 L 7.1921995162963865,113.37401161193847 L 7.138448452949524,112.41749572753906 L 7.0850022554397585,111.46096534729003 L 7.03186228275299,110.5044204711914 L 6.979030799865723,109.54786109924316 L 6.9265091657638544,108.5912872314453 L 6.874299192428588,107.63470611572265 L 6.822402691841125,106.67811050415038 L 6.7708214759826655,105.72150039672852 L 6.719556450843811,104.76488304138184 L 6.6686098814010615,103.80825843811034 L 6.61798357963562,102.85162658691405 L 6.567678904533386,101.89498023986816 L 6.517697668075561,100.93832664489746 L 6.468041229248047,99.98166580200194 L 6.418711853027344,99.02499771118164 L 6.369710898399353,98.06832237243651 L 6.321040177345275,97.1116470336914 L 6.2727015018463135,96.15496444702148 L 6.224695777893066,95.19827461242676 L 6.177025723457336,94.24157752990722 L 6.129692244529724,93.28488769531249 L 6.082697606086731,92.32818336486817 L 6.036043167114258,91.37148628234863 L 5.989730739593506,90.41478195190429 L 5.943761682510376,89.45807762145996 L 5.898137807846069,88.50137329101562 L 5.852861380577087,87.54466896057129 L 5.80793330669403,86.58797187805176 L 5.76335562467575,85.63126754760742 L 5.719129920005798,84.67457046508788 L 5.675258004665375,83.71787338256836 L 5.631741464138031,82.76117630004883 L 5.5885821104049676,81.8044864654541 L 5.545781302452087,80.84780387878418 L 5.50334107875824,79.89112129211425 L 5.461263024806977,78.93444595336913 L 5.419548726081848,77.97777786254882 L 5.378199994564056,77.02111701965332 L 5.337218415737151,76.06446342468261 L 5.296605575084686,75.10780982971191 L 5.256363284587859,74.15117073059082 L 5.216493356227875,73.19454612731933 L 5.1769971489906315,72.23792152404785 L 5.13787670135498,71.28131866455078 L 5.099133598804474,70.32471580505371 L 5.060769200325012,69.36812744140624 L 5.022785544395447,68.4115535736084 L 4.985184216499329,67.45499420166016 L 4.9479670286178585,66.49844207763671 L 4.911135339736939,65.54190444946289 L 4.874691188335419,64.58538131713867 L 4.8386359333992,63.628879928588866 L 4.802971386909485,62.67238578796386 L 4.767699360847473,61.715913391113276 L 4.732821440696716,60.7594554901123 L 4.698339438438415,59.80301570892334 L 4.6642547130584715,58.84659042358398 L 4.630569076538086,57.89018688201904 L 4.597284567356109,56.93380146026611 L 4.564402318000793,55.977437782287595 L 4.531924366950989,55.02109222412109 L 4.499852299690247,54.064768409729 L 4.468187701702117,53.108466339111324 L 4.436932384967804,52.15218601226806 L 4.406088161468506,51.195927429199216 L 4.375656390190125,50.23969421386718 L 4.34563888311386,49.283482742309566 L 4.316037452220916,48.32729663848877 L 4.286853682994842,47.37113590240478 L 4.258089160919189,46.41500053405762 L 4.229745697975158,45.45889053344727 L 4.201825106143952,44.50280952453613 L 4.1743287444114685,43.546753883361816 L 4.1472584247589115,42.59072723388672 L 4.1206159591674805,41.634725952148436 L 4.094402933120728,40.67875728607178 L 4.0686211585998535,39.72281761169433 L 4.043271994590759,38.766910552978516 L 4.0183574795722965,37.81103248596191 L 3.993878972530365,36.85518341064453 L 3.9698385119438173,35.89937057495117 L 3.9462374567985536,34.94358673095703 L 3.923077619075775,33.98783912658691 L 3.900360584259033,33.03212413787841 L 3.8780883908271786,32.07644357681274 L 3.856262284517288,31.12079744338989 L 3.834884190559387,30.165187549591064 L 3.813955807685852,29.20961570739746 L 3.7934786081314087,28.25407829284668 L 3.7734545171260834,27.298578929901122 L 3.753885120153427,26.34311761856079 L 3.7347720026969906,25.387696170806883 L 3.7161169767379763,24.432312774658204 L 3.6979217410087584,23.476969242095947 L 3.6801878809928894,22.521667385101317 L 3.6629170954227446,21.566405391693113 L 3.646111083030701,20.611183261871336 L 3.629771655797958,19.656006431579588 L 3.613900285959244,18.70087127685547 L 3.598498672246933,17.745777797698974 L 3.583568739891052,16.79072961807251 L 3.5691118478775024,15.835726737976074 L 3.5551299214363095,14.880768251419067 L 3.5416245460510254,13.925855064392088 L 3.528597420454025,12.970988082885741 L 3.5160502433776855,12.016169118881225 L 3.5039847135543822,11.061396360397339 L 3.492402416467667,10.106672525405884 L 3.4813050508499144,9.15199716091156 L 3.470694428682327,8.197371172904969 L 3.460572135448456,7.242795014381408 L 3.450939869880676,6.288269138336181 L 3.4417992174625396,5.333794224262237 L 3.433152103424072,4.379370951652527 L 3.425,3.425 Z" fill="none" stroke="black" stroke-width="2" /><path d="M 215.4146530151367,206.89599304199217 L 214.46924819946287,207.09557189941404 L 213.52353897094724,207.2933967590332 L 212.57751083374023,207.4894821166992 L 211.63117828369138,207.68385696411133 L 210.68452682495115,207.87650680541992 L 209.73758544921873,208.0674751281738 L 208.79033966064452,208.25677642822265 L 207.84280395507812,208.44441070556638 L 206.8949783325195,208.6304214477539 L 205.94684829711912,208.81479415893554 L 204.99844284057616,208.99755783081054 L 204.04974746704102,209.1787269592285 L 203.10077667236328,209.35831604003906 L 202.15153045654296,209.5363540649414 L 201.20200881958007,209.71284103393555 L 200.2522262573242,209.8878059387207 L 199.30216827392576,210.06124877929688 L 198.35184936523436,210.23319854736326 L 197.40126953125,210.4036697387695 L 196.45042877197264,210.57267684936522 L 195.49934158325195,210.740234375 L 194.54799346923826,210.90635681152344 L 193.59639892578124,211.07107315063476 L 192.64455795288086,211.23436889648437 L 191.6924850463867,211.3963020324707 L 190.74018020629882,211.5568435668945 L 189.78762893676756,211.71605148315427 L 188.83484573364257,211.87391128540037 L 187.8818305969238,212.03046646118162 L 186.92859802246093,212.18570251464843 L 185.9751480102539,212.3396484375 L 185.0214660644531,212.49233322143553 L 184.0675811767578,212.64375686645508 L 183.11347885131835,212.7939338684082 L 182.15917358398437,212.94289321899413 L 181.20465087890625,213.09064941406248 L 180.2499252319336,213.23720245361326 L 179.295011138916,213.3825813293457 L 178.3398941040039,213.52681503295898 L 177.38458862304688,213.6698890686035 L 176.42909469604493,213.81183242797852 L 175.47341232299803,213.9526741027832 L 174.51754150390624,214.09241409301757 L 173.56149673461914,214.23108139038084 L 172.60527801513672,214.36867599487303 L 171.64887084960938,214.50522689819334 L 170.69230422973632,214.6407485961914 L 169.73557815551757,214.77525558471677 L 168.7786781311035,214.90874786376952 L 167.82161865234374,215.04126892089843 L 166.86439971923826,215.1728187561035 L 165.90703582763672,215.30342636108398 L 164.94951248168945,215.43309173583984 L 163.9918441772461,215.5618293762207 L 163.03403091430664,215.68966827392578 L 162.0760726928711,215.81662292480468 L 161.11796951293945,215.942707824707 L 160.15975036621094,216.06793746948242 L 159.2013862609863,216.19232635498045 L 158.24290618896484,216.31588897705078 L 157.28428115844727,216.43865432739256 L 156.3255546569824,216.56060791015625 L 155.3666976928711,216.68180770874022 L 154.4077247619629,216.8022392272949 L 153.44865036010742,216.92191696166992 L 152.48945999145508,217.04088439941404 L 151.53015365600587,217.15912704467772 L 150.57076034545898,217.27668838500975 L 149.61125106811522,217.39356842041013 L 148.65166931152342,217.5097816467285 L 147.69197158813475,217.62534255981444 L 146.73220138549803,217.7402801513672 L 145.77232971191407,217.8545944213867 L 144.81238555908203,217.96831436157225 L 143.85235443115235,218.08145446777343 L 142.8922508239746,218.19402923583982 L 141.93207473754882,218.30603866577147 L 140.971826171875,218.4175262451172 L 140.01150512695312,218.52849197387695 L 139.0511260986328,218.63896484375 L 138.09067459106444,218.7489303588867 L 137.13017959594725,218.85844650268552 L 136.16962661743165,218.96749877929688 L 135.2090301513672,219.0761016845703 L 134.24837570190428,219.18429870605468 L 133.28767776489258,219.29208984374998 L 132.32693634033203,219.39947509765625 L 131.36616592407225,219.50649795532226 L 130.40535202026368,219.61315841674804 L 129.44450912475585,219.7194709777832 L 128.4836372375488,219.82546463012693 L 127.52273635864258,219.9311538696289 L 126.5618064880371,220.03653869628906 L 125.60087661743164,220.14164810180662 L 124.63991775512694,220.24649658203123 L 123.67894439697265,220.3510986328125 L 122.71797103881835,220.45546875 L 121.75699043273926,220.55962142944335 L 120.79600982666015,220.6635856628418 L 119.83502197265625,220.7673614501953 L 118.87404136657715,220.8709777832031 L 117.91306800842284,220.97443466186522 L 116.95210189819335,221.07776107788084 L 115.99115028381347,221.1809715270996 L 115.0302131652832,221.2840805053711 L 114.06929779052734,221.3871025085449 L 113.1084041595459,221.4900520324707 L 112.14753952026366,221.59295806884765 L 111.18670387268065,221.69580612182617 L 110.22589721679687,221.79865417480468 L 109.24643440246581,221.90343017578124 L 108.26679763793945,222.00797424316406 L 107.28700866699218,222.1120834350586 L 106.3070529937744,222.21549682617186 L 105.32693061828613,222.31799697875977 L 104.34664154052734,222.4193374633789 L 103.36619300842284,222.51930084228513 L 102.38557052612305,222.61765518188474 L 101.40477409362792,222.71416854858398 L 100.4238109588623,222.80859451293944 L 99.44268112182617,222.900715637207 L 98.46137733459472,222.99028549194335 L 97.47989234924316,223.07708663940429 L 96.49824066162108,223.16087265014647 L 95.5164077758789,223.24142608642578 L 94.5344009399414,223.31850051879883 L 93.55221290588378,223.39187850952146 L 92.56984367370605,223.46131362915037 L 91.5872932434082,223.52657394409178 L 90.60456886291503,223.58744201660156 L 89.62165603637695,223.64368591308593 L 88.63855476379395,223.69504470825194 L 87.65527229309082,223.74131546020507 L 86.67180137634277,223.78225173950193 L 85.6881492614746,223.8176216125488 L 84.70430145263671,223.84720764160156 L 83.7202651977539,223.8707633972168 L 82.73604049682616,223.88805694580077 L 81.75162010192871,223.89885635375975 L 80.76700401306152,223.90292968749998 L 79.78219947814941,223.90004501342773 L 78.78137702941895,223.88985443115234 L 77.78080101013184,223.87256088256834 L 76.78045692443847,223.84845428466795 L 75.78035202026366,223.81785354614257 L 74.78047180175781,223.78107757568358 L 73.78080902099609,223.7384162902832 L 72.78137092590332,223.6902030944824 L 71.78214302062987,223.63672790527343 L 70.78312530517577,223.57830963134765 L 69.78431053161621,223.51525268554687 L 68.78569145202637,223.4478759765625 L 67.78726081848144,223.37648391723633 L 66.78902587890624,223.30138092041014 L 65.79097213745118,223.22288589477537 L 64.7930923461914,223.14130325317382 L 63.79538650512695,223.05693740844725 L 62.79785461425781,222.9701217651367 L 61.800482177734374,222.88113174438476 L 60.80326919555664,222.7903007507324 L 59.8062084197998,222.69793319702148 L 58.80929622650146,222.60431900024412 L 57.81252536773681,222.509806060791 L 56.81589584350586,222.4146842956543 L 55.81940040588378,222.31924362182616 L 54.8375747680664,222.2251365661621 L 53.85574913024902,222.13101501464843 L 52.873923492431636,222.03689346313476 L 51.892101478576656,221.9427864074707 L 50.910275840759276,221.84866485595703 L 49.92845020294189,221.75454330444336 L 48.94662456512451,221.6604362487793 L 47.96479892730713,221.56631469726562 L 46.98297328948974,221.47219314575193 L 46.00115127563476,221.3780860900879 L 45.01932563781738,221.2839645385742 L 44.0375,221.18985748291016 L 43.055674362182614,221.0957504272461 L 42.073848724365234,221.00162887573242 L 41.092026710510254,220.90752182006835 L 40.11020107269287,220.81341476440429 L 39.12837543487549,220.71930770874022 L 38.14654979705811,220.62520065307615 L 37.16472415924072,220.5310935974121 L 36.18289852142334,220.43700103759764 L 35.20107650756836,220.34289398193357 L 34.21925086975097,220.24878692626953 L 33.23742523193359,220.15469436645506 L 32.255599594116205,220.06060180664062 L 31.27377576828003,219.96650924682615 L 30.291950130462645,219.8724166870117 L 29.31012449264526,219.77832412719727 L 28.32830066680908,219.6842315673828 L 27.346475028991698,219.59013900756835 L 26.364649391174314,219.4960609436035 L 25.382825565338134,219.40198287963867 L 24.40099992752075,219.30790481567382 L 23.419174289703367,219.21382675170898 L 22.437350463867187,219.11974868774413 L 21.455524826049803,219.0256706237793 L 20.47369918823242,218.93160705566405 L 19.49187536239624,218.83754348754883 L 18.510049724578856,218.74347991943358 L 17.528225898742676,218.64941635131834 L 16.546400260925292,218.55535278320312 L 15.564574623107909,218.4613037109375 L 14.582749891281127,218.36725463867185 Z" fill="none" stroke="black" stroke-width="2" /><path d="M 207.93814315795896,4.00165010690689 L 208.12938690185547,4.933528935909271 L 208.31842727661132,5.865691113471985 L 208.50529327392576,6.79813392162323 L 208.68998489379882,7.730856227874756 L 208.87250213623045,8.66385576725006 L 209.05288848876953,9.597130727767944 L 209.2311294555664,10.530679750442504 L 209.40722503662107,11.464500570297242 L 209.58121871948242,12.398591375350952 L 209.75309600830076,13.332950353622437 L 209.92287139892576,14.267574787139893 L 210.0905448913574,15.20246467590332 L 210.25615997314452,16.137617301940917 L 210.41968765258787,17.073029947280883 L 210.5811714172363,18.008701705932616 L 210.74059677124023,18.944629859924316 L 210.89799270629882,19.880815315246583 L 211.0533592224121,20.81725263595581 L 211.20669631958006,21.753941822052003 L 211.35803298950194,22.690879249572752 L 211.50738372802732,23.628066730499267 L 211.65473403930662,24.56549882888794 L 211.80011291503905,25.503175544738767 L 211.9435203552246,26.441095066070556 L 212.08497085571287,27.379253768920897 L 212.2244789123535,28.317651653289794 L 212.36205902099607,29.256285095214842 L 212.497696685791,30.195155906677243 L 212.6314353942871,31.134258651733397 L 212.76326065063475,32.0735915184021 L 212.89318695068357,33.01315631866455 L 213.0212287902832,33.95294399261475 L 213.1474006652832,34.89295997619629 L 213.2717170715332,35.83320064544677 L 213.39416351318357,36.773662376403806 L 213.5147834777832,37.71434516906738 L 213.6335624694824,38.6552453994751 L 213.75051498413086,39.59636306762695 L 213.86565551757812,40.53769454956055 L 213.9789985656738,41.47923622131348 L 214.09054412841795,42.42099170684814 L 214.20030670166014,43.36295738220215 L 214.30830078124998,44.30512599945068 L 214.41452636718748,45.247504806518556 L 214.51901245117188,46.19008293151855 L 214.6217445373535,47.132863998413086 L 214.72275161743164,48.07584800720215 L 214.82204818725586,49.01902408599853 L 214.91961975097655,49.96239948272705 L 215.01549530029297,50.90597057342529 L 215.10968933105468,51.84973373413086 L 215.20220184326172,52.793685340881346 L 215.29303283691405,53.73782539367676 L 215.38221130371093,54.682153892517086 L 215.46975173950193,55.62666721343994 L 215.55563964843748,56.571361732482906 L 215.6399040222168,57.5162410736084 L 215.72255935668943,58.4612979888916 L 215.80359115600584,59.406532478332515 L 215.8830284118652,60.35194091796875 L 215.96088562011718,61.29752693176269 L 216.03716278076172,62.24328327178955 L 216.11187438964842,63.18920631408691 L 216.18503494262694,64.13529968261719 L 216.25664443969725,65.08156700134276 L 216.32671737670898,66.02799377441406 L 216.3952537536621,66.97458000183106 L 216.46228256225584,67.92132568359375 L 216.52781829833984,68.86823806762695 L 216.59184646606445,69.81530265808105 L 216.6543960571289,70.76252670288086 L 216.7154670715332,71.70990295410157 L 216.77507400512695,72.65742416381836 L 216.83323135375974,73.60510482788085 L 216.88993911743162,74.55293045043945 L 216.94521179199216,75.50090103149414 L 216.999063873291,76.44901657104492 L 217.05150985717773,77.39726982116699 L 217.10254974365233,78.34566802978516 L 217.15218353271484,79.29421119689941 L 217.20045471191406,80.24288482666016 L 217.2473487854004,81.19169616699219 L 217.29288024902343,82.1406379699707 L 217.3370491027832,83.0897102355957 L 217.3798843383789,84.03891296386719 L 217.42140045166013,84.98824615478516 L 217.46158294677733,85.9377025604248 L 217.50046081542968,86.88728218078613 L 217.53803405761718,87.83698501586913 L 217.57431716918944,88.78681106567383 L 217.60932464599608,89.73675308227538 L 217.6430564880371,90.68681106567382 L 217.6755416870117,91.63698501586914 L 217.7067657470703,92.58726768493652 L 217.7367576599121,93.53766632080078 L 217.7655174255371,94.4881736755371 L 217.7930595397949,95.4387897491455 L 217.81939849853515,96.38950729370117 L 217.8445343017578,97.3403335571289 L 217.86848144531248,98.2912612915039 L 217.89125442504883,99.24228324890136 L 217.9128677368164,100.19340667724609 L 217.9333213806152,101.14462432861328 L 217.9526153564453,102.09594345092773 L 217.97079315185545,103.04734954833984 L 217.98782577514646,103.9988426208496 L 218.00375671386718,104.95042991638184 L 218.01857147216796,105.90210418701172 L 218.03229904174805,106.85386543273925 L 218.0449394226074,107.80570640563964 L 218.0565071105957,108.75762710571288 L 218.0670166015625,109.70963478088379 L 218.0764678955078,110.66171493530273 L 218.08486099243163,111.61386756896972 L 218.0922393798828,112.56609992980957 L 218.0985885620117,113.51840476989746 L 218.10392303466796,114.4707820892334 L 218.10825729370117,115.42322463989257 L 218.11159133911133,116.375732421875 L 218.11395416259765,117.32830543518065 L 218.11533126831054,118.28094367980957 L 218.1157516479492,119.2336399078369 L 218.11522979736327,120.1864013671875 L 218.11376571655273,121.13921356201172 L 218.11135940551756,122.09208374023437 L 218.10803985595703,123.04501190185546 L 218.1038070678711,123.99798355102538 L 218.09867553710936,124.95101318359374 L 218.09264526367187,125.90408630371093 L 218.0857452392578,126.85720291137694 L 218.07797546386718,127.8103775024414 L 218.0693504333496,128.7635810852051 L 218.05987014770506,129.7168281555176 L 218.0495491027832,130.6701187133789 L 218.03840179443358,131.62345275878906 L 218.02644271850585,132.57681579589843 L 218.013671875,133.53020782470702 L 218.000089263916,134.48362884521484 L 217.98573837280273,135.43709335327148 L 217.97060470581053,136.39057235717772 L 217.95470275878904,137.3440803527832 L 217.93804702758788,138.2976173400879 L 217.920637512207,139.25116882324218 L 217.9024887084961,140.2047492980957 L 217.88362960815428,141.15834426879883 L 217.86404571533203,142.11195373535156 L 217.8437515258789,143.0655776977539 L 217.82277603149413,144.01923065185545 L 217.8011047363281,144.97288360595704 L 217.77876663208008,145.9265365600586 L 217.75574722290037,146.88020401000975 L 217.7320899963379,147.83388595581053 L 217.70778045654296,148.7875679016113 L 217.68284759521484,149.7412498474121 L 217.6572769165039,150.69493179321287 L 217.63111190795897,151.64859924316406 L 217.60432357788085,152.60228118896484 L 217.57695541381835,153.55594863891602 L 217.54900741577148,154.50961608886718 L 217.5204795837402,155.46326904296873 L 217.49138641357422,156.4169075012207 L 217.46174240112305,157.37054595947265 L 217.43156204223632,158.32415542602538 L 217.40085983276367,159.27776489257812 L 217.36962127685547,160.23134536743163 L 217.33787536621094,161.18491134643554 L 217.30563659667968,162.13844833374023 L 217.2729049682617,163.0919563293457 L 217.23968048095702,164.04544982910156 L 217.20600662231445,164.9989143371582 L 217.17185440063474,165.9523498535156 L 217.13726730346679,166.9057418823242 L 217.10223083496092,167.8591194152832 L 217.0667739868164,168.81245346069335 L 217.0308967590332,169.76574401855467 L 216.99461364746094,170.7190055847168 L 216.9579246520996,171.67222366333007 L 216.92085876464841,172.62539825439453 L 216.8834014892578,173.57852935791016 L 216.84559631347656,174.53161697387694 L 216.80741424560546,175.48466110229492 L 216.76889877319334,176.43764724731446 L 216.73004989624022,177.39058990478514 L 216.69086761474608,178.3434745788574 L 216.65136642456054,179.29630126953126 L 216.6115608215332,180.24906997680662 L 216.57146530151365,181.2017807006836 L 216.53107986450195,182.1544334411621 L 216.49041900634765,183.10702819824218 L 216.4494972229004,184.0595504760742 L 216.40832901000977,185.0120002746582 L 216.36689987182615,185.96439208984373 L 216.32525329589842,186.91671142578124 L 216.28337478637695,187.8689582824707 L 216.24127883911132,188.8211326599121 L 216.19897994995117,189.77323455810546 L 216.15649261474607,190.72526397705076 L 216.1138313293457,191.67720642089841 L 216.07098159790038,192.62906188964843 L 216.02797241210936,193.5808448791504 L 215.98481826782225,194.53254089355468 L 215.94151916503904,195.48414993286133 L 215.89808959960936,196.4356575012207 L 215.8545440673828,197.38709259033203 L 215.81088256835938,198.3384262084961 L 215.76711959838866,199.2896728515625 L 215.7232696533203,200.24081802368164 L 215.6793472290039,201.1918617248535 L 215.63533782958984,202.14281845092773 L 215.59128494262694,203.09365921020506 L 215.54717407226562,204.04439849853514 L 215.50301971435545,204.99505081176756 L 215.4588508605957,205.9455726623535 L 215.4146530151367,206.89599304199217 Z" fill="none" stroke="black" stroke-width="2" /><path d="M 3.4839000344276427,3.782200044393539 L 4.439302456378936,3.7832255125045773 L 5.394704878330231,3.7842509806156155 L 6.3501070737838745,3.7852764487266537 L 7.305509495735168,3.786301916837692 L 8.260911464691162,3.78732738494873 L 9.216313433647155,3.7883528530597683 L 10.17171540260315,3.7893783211708065 L 11.127116918563843,3.7904037892818447 L 12.082518434524536,3.791429257392883 L 13.037919950485229,3.792454725503921 L 13.993320560455322,3.7934801936149594 L 14.948722076416015,3.7945056617259976 L 15.904123592376708,3.7955311298370358 L 16.8595242023468,3.796556597948074 L 17.814924812316896,3.7975819528102877 L 18.770326328277587,3.798607420921326 L 19.72572603225708,3.799632889032364 L 20.681127548217773,3.8006583571434023 L 21.636527252197265,3.8016838252544405 L 22.59192876815796,3.8027092933654787 L 23.54732847213745,3.803734761476517 L 24.502728176116943,3.804760229587555 L 25.458127880096434,3.8057856976985933 L 26.41352939605713,3.8068111658096315 L 27.36892910003662,3.8078366339206697 L 28.324328804016112,3.808862102031708 L 29.279728507995603,3.809887570142746 L 30.235128211975095,3.8109130382537844 L 31.190526103973387,3.8119385063648226 L 32.14592580795288,3.8129639744758608 L 33.10132732391357,3.813989442586899 L 34.05672340393066,3.815014910697937 L 35.012123107910156,3.8160403788089754 L 35.967522811889644,3.8170658469200136 L 36.92292251586914,3.818091315031052 L 37.878322219848634,3.81911678314209 L 38.83371829986572,3.8201422512531282 L 39.78911800384521,3.8211677193641664 L 40.744517707824706,3.8221931874752046 L 41.6999174118042,3.823218655586243 L 42.65531349182129,3.824244123697281 L 43.61071319580078,3.8252695918083193 L 44.56610927581787,3.8262950599193575 L 45.52150897979736,3.8273205280303957 L 46.476908683776855,3.828345996141434 L 47.432304763793944,3.829371464252472 L 48.38770446777343,3.8303969323635103 L 49.34310054779053,3.8314224004745485 L 50.298500251770015,3.8324478685855867 L 51.253896331787104,3.833473336696625 L 52.2092960357666,3.834498804807663 L 53.16469211578369,3.8355242729187013 L 54.12009181976318,3.8365497410297396 L 55.07548789978027,3.8375752091407778 L 56.03088397979736,3.838600677251816 L 56.986283683776854,3.839626145362854 L 57.94167976379394,3.8406516134738924 L 58.89707584381103,3.8416770815849306 L 59.852475547790526,3.842702549695969 L 60.807871627807614,3.843728017807007 L 61.7632677078247,3.844753485918045 L 62.7186674118042,3.8457789540290834 L 63.674063491821286,3.8468044221401216 L 64.62946319580078,3.84782989025116 L 65.58485565185546,3.848855358362198 L 66.54025535583496,3.8498808264732363 L 67.49564781188964,3.8509062945842745 L 68.45104751586913,3.8519317626953127 L 69.40644721984863,3.852957230806351 L 70.36183967590331,3.853982698917389 L 71.3172393798828,3.8550081670284273 L 72.2726318359375,3.8560336351394655 L 73.22803153991698,3.8570591032505037 L 74.18343124389648,3.858084571361542 L 75.13882369995117,3.85911003947258 L 76.09422340393066,3.8601355075836183 L 77.04961585998535,3.8611609756946565 L 78.00501556396485,3.8621864438056948 L 78.96040802001953,3.863211911916733 L 79.91580772399902,3.864237380027771 L 80.8712001800537,3.8652628481388094 L 81.8265998840332,3.8662883162498476 L 82.78199234008788,3.867313784360886 L 83.73739204406738,3.868339252471924 L 84.69278450012207,3.869364720582962 L 85.64818420410155,3.8703901886940004 L 86.60357666015625,3.8714156568050386 L 87.55897636413575,3.872441124916077 L 88.51437606811523,3.873466593027115 L 89.46976852416992,3.8744920611381533 L 90.42516822814942,3.8755175292491915 L 91.3805606842041,3.8765429973602297 L 92.33595314025878,3.877568465471268 L 93.29135284423828,3.878593933582306 L 94.24674530029296,3.8796194016933443 L 95.20214500427245,3.8806448698043825 L 96.15753746032715,3.8816703379154207 L 97.11293716430663,3.882695806026459 L 98.06832962036133,3.883721274137497 L 99.02372932434082,3.8847467422485353 L 99.9791217803955,3.8857722103595735 L 100.934521484375,3.8867976784706117 L 101.88991394042968,3.88782314658165 L 102.84531364440917,3.888848614692688 L 103.80070610046386,3.8898740828037264 L 104.75610580444335,3.8908995509147646 L 105.71149826049805,3.891925019025803 L 106.66689796447753,3.892950487136841 L 107.62229042053222,3.893975955247879 L 108.57769012451172,3.8950014233589174 L 109.5330825805664,3.8960268914699556 L 110.4884822845459,3.897052359580994 L 111.44387474060058,3.898077827692032 L 112.39927444458007,3.8991032958030702 L 113.35466690063475,3.900128650665283 L 114.31006660461425,3.9011542320251467 L 115.26545906066895,3.9021795868873594 L 116.22085876464843,3.903205168247223 L 117.17625122070312,3.904230523109436 L 118.1316436767578,3.9052561044692995 L 119.0870433807373,3.9062814593315123 L 120.04243583679198,3.907307040691376 L 120.99783554077148,3.9083323955535887 L 121.95322799682617,3.9093579769134523 L 122.90862770080565,3.910383331775665 L 123.86402740478515,3.9114089131355287 L 124.81941986083984,3.9124342679977415 L 125.77481231689453,3.913459849357605 L 126.73021926879882,3.914485204219818 L 127.68561172485352,3.9155107855796816 L 128.6410041809082,3.9165361404418944 L 129.59639663696288,3.917561721801758 L 130.5518035888672,3.9185870766639708 L 131.50719604492187,3.9196126580238344 L 132.46258850097655,3.920638012886047 L 133.41798095703123,3.921663594245911 L 134.37338790893554,3.9226889491081236 L 135.32878036499022,3.9237145304679872 L 136.2841728210449,3.9247398853302 L 137.23956527709962,3.9257654666900637 L 138.1949722290039,3.9267908215522764 L 139.15036468505858,3.92781640291214 L 140.1057571411133,3.928841757774353 L 141.06116409301757,3.9298673391342165 L 142.01655654907225,3.9308926939964293 L 142.97194900512696,3.931918275356293 L 143.92735595703124,3.9329436302185057 L 144.88274841308592,3.9339692115783693 L 145.83814086914063,3.934994566440582 L 146.7935333251953,3.9360201478004457 L 147.7489402770996,3.9370455026626585 L 148.7043327331543,3.938071084022522 L 149.65972518920898,3.939096438884735 L 150.61513214111326,3.9401220202445986 L 151.57052459716797,3.9411473751068113 L 152.52591705322266,3.942172956466675 L 153.48132400512694,3.9431983113288878 L 154.43671646118165,3.9442238926887514 L 155.39210891723633,3.945249247550964 L 156.3475158691406,3.946274828910828 L 157.30290832519532,3.9473001837730406 L 158.25830078125,3.9483257651329042 L 159.21370773315428,3.949351119995117 L 160.169100189209,3.9503767013549806 L 161.12450714111327,3.9514020562171934 L 162.07989959716795,3.952427637577057 L 163.03529205322266,3.95345299243927 L 163.99069900512694,3.9544785737991335 L 164.94609146118162,3.9555039286613463 L 165.90148391723633,3.95652951002121 L 166.8568908691406,3.9575548648834227 L 167.8122833251953,3.9585804462432863 L 168.7676902770996,3.959605801105499 L 169.72308273315429,3.9606313824653627 L 170.6784896850586,3.9616567373275755 L 171.63388214111328,3.962682318687439 L 172.58927459716796,3.963707673549652 L 173.54468154907227,3.9647332549095156 L 174.50007400512695,3.9657586097717283 L 175.45548095703126,3.966784191131592 L 176.41087341308594,3.9678095459938048 L 177.36628036499022,3.9688351273536684 L 178.32167282104493,3.969860482215881 L 179.2770797729492,3.970886063575745 L 180.2324722290039,3.9719114184379576 L 181.1878791809082,3.9729369997978212 L 182.14327163696288,3.973962354660034 L 183.0986785888672,3.9749879360198976 L 184.05407104492187,3.9760132908821104 L 185.00947799682615,3.977038872241974 L 185.96487045288086,3.978064227104187 L 186.92027740478514,3.9790898084640505 L 187.87566986083982,3.9801151633262633 L 188.83107681274413,3.981140744686127 L 189.7864692687988,3.9821660995483397 L 190.74187622070312,3.9831916809082033 L 191.6972686767578,3.984217035770416 L 192.6526756286621,3.9852426171302797 L 193.6080680847168,3.9862679719924925 L 194.56347503662107,3.987293553352356 L 195.51888198852538,3.988318908214569 L 196.47427444458006,3.9893444895744326 L 197.42968139648437,3.9903698444366453 L 198.38507385253905,3.991395425796509 L 199.34048080444336,3.9924207806587217 L 200.29588775634764,3.9934463620185854 L 201.25128021240232,3.994471716880798 L 202.20668716430663,3.995497298240662 L 203.16209411621094,3.9965226531028746 L 204.11748657226562,3.997548234462738 L 205.0728935241699,3.998573589324951 L 206.0283004760742,3.9995991706848146 L 206.9836929321289,4.000624525547027 L 207.9390998840332,4.00165010690689 Z" fill="none" stroke="black" stroke-width="2" /></g></svg>